# xmcd
#
# Track frame offsets: 
#        150
#        15740
#        29645
#        43906
#        54545
#        70600
#        83280
#        100543
#        113244
#        123517
#        136259
#        150861
#
# Disc length: 2264 seconds
#
# Revision: 0
# Processed by: cddbd v1.4PL0 Copyright (c) Steve Scherf et al.
# Submitted via: ExactAudioCopy v0.95a3
#
DISCID=8d08d60c
DTITLE=Alkaline Trio - From Here To Infirmary
DYEAR=2001
DGENRE=Punk Rock
TTITLE0=Private Eye
TTITLE1=Mr. Chainsaw
TTITLE2=Take Lots With Alcohol
TTITLE3=Stupid Kid
TTITLE4=Another Innocent Girl
TTITLE5=Steamer Truck
TTITLE6=You're Dead
TTITLE7=Armageddon
TTITLE8=I'm Dying Tomorrow
TTITLE9=Bloodied Up
TTITLE10=Trucks and Trains
TTITLE11=Crawl
EXTD=
EXTT0=
EXTT1=
EXTT2=
EXTT3=
EXTT4=
EXTT5=
EXTT6=
EXTT7=
EXTT8=
EXTT9=
EXTT10=
EXTT11=
PLAYORDER=
